P2
# Generated by OpenCV 3.4.2
83 55
255
   0   0   0   0   0   0   0   0   0   0   0   0   0   0   0   0   0   0   0   0   0   0   0   0   0   0   0   0   0   0   0   0   0   0   0   0   0   0   0   0   0   0   0   0   0   0   0   0   0   0   0   0   0   0   0   0   0   0   0   0   0   0   0   0   0   0   0   0   0   0   0   0   0   0   0   0   0   0   0   0   0   0   0
   0   0   0   0   0   0   0   0   0   0   0   0   0   0   0   0   0   0   0   0   0   0   0   0   0   0   0   0   0   0   0   0   0   0   0   0   0   0   0   0   0   0   0   0   0   0   0   0   0   0   0   0   0   0   0   0   0   0   0   0   0   0   0   0   0   0   0   0   0   0   0   0   0   0   0   0   0   0   0   0   0   0   0
   0   0   0   0   0   0   0   0   0   0   0   0   0   0   0   0   0   0   0   0   0   0   0   0   0   0   0   0   0   0   0   0   0   0   0   0   0   0   0   0   0   0   0   0   0   0   0   0   0   0   0   0   0   0   0   0   0   0   0   0   0   0   0   0   0   0   0   0   0   0   0   0   0   0   0   0   0   0   0   0   0   0   0
   0   0   0   0   0   0   0   0   0   0   0   0   0   0   0   0   0   0   0   0   0   0   0   0   0   0   0   0   0   0   0   0   0   0   0   0   0   0   0   0   0   0   0   0   0   0   0   0   0   0   0   0   0   0   0   0   0   0   0   0   0   0   0   0   0   0   0   0   0   0   0   0   0   0   0   0   0   0   0   0   0   0   0
   0   0   0   0   0   0   0   0   0   0   0   0   0   0   0   0   0   0   0   0   0   0   0   0   0   0   0   0   0   0   0   0   0   0   0   0   0   0   0   0   0   0   0   0   0   0   0   0   0   0   0   0   0   0   0   0   0   0   0   0   0   0   0   0   0   0   0   0   0   0   0   0   0   0   0   0   0   0   0   0   0   0   0
   0   0   0   0   0   0   0   0   0   0   0   0   0   0   0   0   0   0   0   0   0   0   0   0   0   0   0   0   0   0   0   0   0   0   0   0   0   0   0   0   0   0   0   0   0   0   0   0   0   0   0   0   0   0   0   0   0   0   0   0   0   0   0   0   0   0   0   0   0   0   0   0   0   0   0   0   0   0   0   0   0   0   0
   0   0   0   0   0   0   0   0   0   0   0   0   0   0   0   0   0   0   0   0   0   0   0   0   0   0   0   0   0   0   0   0   0   0   0   0   0   0   0   0   0   0   0   0   0   0   0   0   0   0   0   0  96  58   0   0   0   0   0   0   0   0   0   0   0   0   0   0   0   0   0   0   0   0   0   0   0   0   0   0   0   0   0
   0   0   0   0   0   0   0   0   0   0   0   0   0   0   0   0   0   0   0   0   0   0   0   0   0   0   0   0   0   0   0   0   0   0   0   0   0   0   0   0   0   0   0   0   0   0   0   0   0   0   0 142 253  57   0   0   0   0   0   0   0   0   0   0   0   0   0   0   0   0   0   0   0   0   0   0   0   0   0   0   0   0   0
   0   0   0   0   0   0   0   0   0   0   0   0   0   0   0   0   0   0   0   0   0   0   0   0   0   0   0   0   0   0   0   0   0   0   0   0   0   0   0   0   0   0   0   0   0   0   0   0   0  29 184 255 255  39   0   0   0   0   0   0   0   0   0   0   0   0   0   0   0   0   0   0   0   0   0   0   0   0   0   0   0   0   0
   0   0   0   0   0   0   0   0   0   0   0   0   0   0   0   0   0   0   0   0   0   0   0   0   0   0   0   0   0   0   0   0   0   0   0   0  43  15   0   0   0   0   0   0   0   0   0   0 134 250 255 255 255  16   0   0   0   0   0   0   0   0   0   0   0  16 103   2   0   0   0   0   0   0   0   0   0   0   0   0   0   0   0
   0   0   0   0   0   0   0   0   0   0   0   0   0   0   0   0   0   0   0   0   0   0   0   0   0   0   0   0   0   0   0   0   0   0   0   0 145 164   0   0   0   0   0   0   0   0   0 112 255 255 255 255 255   2   0   0   0   0   0   0   0   0   0   0  99 249 128   0   0   0   0   0   0   0   0   0   0   0   0   0   0   0   0
   0   0   0   0   0   0   0   0   0   0   0   0   0   0   0   0   0   0   0   0   0   0   0   0   0   0   0   0   0   0   0   0   0   0   0   0 217 252 164  15   0   0   0   0   0   0 103 246 255 255 255 255 249   0   0   0   0   0   0   0   0   0  39 172 252 187  10   0   0   0   0   0   0   0   0   0   0   0   0   0   0   0   0
   0   0   0   0   0   0   0   0   0   0   0   0   0   0   0   0   0   0   0   0   0   0   0   0   0   0   0   0   0   0   0   0   0   0   0  80 255 255 255 208  15   0   0   0   1 149 254 255 255 255 255 255 238   0   0   0   0   0   0   0  54 159 249 255 181   0   0   0   0   0   0   0   0   0   0   0   0   0   0   0   0   0   0
   0   0   0   0   0   0   0   0   0   0   0   0   0   0   0   0   0   0  86 181 109  26   0   0   0   0   0   0   0   0   0   0   0   0   0 186 255 255 255 255 208  15   0  36 191 255 255 255 255 255 255 255 227   0   0   0   0   0  76 205 255 255 255 228  16   0   0   0   0   0   0   0   0   0   0   0   0   0   0   0   0   0   0
   0   0   0   0   0   0   0   0   0   0   0   0   0   0   0   0   0   0   5 251 255 244  99  99   0   0   0   0   0   0   0   0   0   0   4 249 255 255 255 255 255 164  62 249 255 255 255 255 255 255 255 255 218   0   0   0   0 125 255 255 255 255 255 116   0   0   0   0   0   0   0   0   0   0   0   0   0   0   0   0   0   0   0
   0   0   0   0   0   0   0   0   0   0   0   0   0   0   0   0   0   0   0 196 255 255 254 254 203 109   5   0   0   0   0   0   0   0 100 255 255 255 255 255 255 252 236 255 255 255 255 255 253 255 255 255 209   0   0  53 186 254 255 255 255 255 215   5   0   0   0   0   0   0   0   0   0   0   0   0   0   0   0   0   0   0   0
   0   0   0   0   0   0   0   0   0   0   0   0   0   0   0   0   0   0   0 104 255 255 255 255 255 255 239 181 109   5   0   0   0   0 202 255 255 255 255 255 255 255 255 255 255 255 254 149 211 255 255 255 198 108 203 252 255 255 255 255 255 245  52   0   0   0   0   0   0   0   0   0   0   0   0   0   0   0   0   0   0   0   0
   0   0   0   0   0   0   0   0   0   0   0   0   0   0   0   0   0   0   0   4 224 255 255 255 255 255 255 255 255 240 158  52   0  59 254 255 255 254 187 252 255 255 255 255 255 246 103   0 221 255 255 255 253 255 255 255 255 255 255 255 255 116   0   0   0   0   0   0   0   0   0   0   0   0   0   0   0   0   0   0   0   0   0
   0   0   0   0   0   0   0   0   0   0   0   0   0   0   0   0   0   0   0   0  57 250 255 255 255 255 255 255 255 255 255 254 225 218 255 255 255 202   0 106 252 255 255 255 228  60   0   0 233 255 255 255 255 255 255 255 255 255 255 249 112   0   0   0   0   0   0   0   0   0   0   0   0   0   0   0   0   0   0   0   0   0   0
   0   0   0   0   0   0   0   0   0   0   0   0   0   0   0   0   0   0   0   0   0 208 255 255 255 255 255 255 255 255 255 255 255 255 255 255 255 127   0   0 164 255 255 245  53   0   0   0 241 255 255 255 255 255 255 255 255 255 255 171   0   0   0   0   0   0   0   0   0   0   0   0   0   0   0   0   0   0   0   0   0   0   0
   0   0   0   0   0   0   0   0   0   0   0   0   0   0   0   0   0   0   0   0   0 143 255 255 255 255 255 255 255 255 255 255 255 255 255 255 252  40   0   0  15 208 184  29   0   0   0   0 250 255 255 255 255 255 255 255 255 255 255 255 255 255 255 255 255 255 255 255 255 255 255 255 255 255 255 255 255 252 188  88   1   0   0
   0   0   0   0   0   0   0   0   0   0   0   0   0   0   0   0   0   0   0   0   0  39 253 253 255 255 255 150 135 224 255 255 255 255 255 255 186   0   0   0   0   8   0   0   0   0   0   6 255 255 255 255 255 255 255 255 255 255 255 255 255 255 255 255 255 255 255 255 255 255 255 255 255 255 253 193 121  36   0   0   0   0   0
   0   0   0   0   0   0   0  24  91 101 110 123 135 146 158 166 174 184 195 206 214 221 252 252 255 255 255 246  27   0  81 182 244 255 255 255  80   0   0   0   0   0   0   0   0   0   0  29 255 255 255 205 247 255 255 255 255 255 255 255 255 255 255 255 255 255 255 255 255 255 255 255 237 151  41   0   0   0   0   0   0   0   0
   0   0   0   0   0   0   0   1 147 253 255 255 255 255 255 255 255 255 255 255 255 255 255 255 255 255 255 255 134   0   0   0   1  81 182 211   0   0   0   0   0   0   0   0   0   0   0  48 246 183  84 160 255 255 255 255 255 255 255 255 255 255 255 255 255 255 255 255 255 240 157  78   3   0   0   0   0   0   0   0   0   0   0
   0   0   0   0   0   0   0   0   0  72 244 255 255 255 255 255 255 255 255 255 255 255 255 255 255 255 255 255 200   0   0   0   0   0   0   2   0   0   0   0   0   0   0   0   0   0   0  45  65   0   0   0   0   0   0   0  20 196 255 255 255 255 255 255 255 255 255 255 197  20   0   0   0   0   0   0   0   0   0   0   0   0   0
   0   0   0   0   0   0   0   0   0   0  70 232 255 255 255 255 255 255 255 255 255 255 255 255 255 255 255 255 248  20   0   0   0   0   0   0   0   0   0   0   0   0   0   0   0   0   0   0   0   0   0   0   0   3  78 157 240 255 255 255 255 255 255 255 255 249 188  88   1   0   0   0   0   0   0   0   0   0   0   0   0   0   0
   0   0   0   0   0   0   0   0   0   0   0  27 201 255 255 255 255 255 255 233 192 184 174 174 163 152 141 132 123  37   0   0   0   0   0   0   0   0   0   0   0   0   0   0   0   0   0   0   0   0   0   0   0 188 255 255 255 255 255 255 255 255 253 193  94   3   0   0   0   0   0   0   0   0   0   0   0   0   0   0   0   0   0
   0   0   0   0   0   0   0   0   0   0   0   0   2 156 254 255 255 255 255 251 177  40   0   0   0   0   0   0   0   0   0   0   0   0   0   0   0   0   0   0   0   0   0   0   0   0   0   0   0   0   0   0   0  15 164 252 255 255 255 255 255 164  41   0   0   0   0   0   0   0   0   0   0   0   0   0   0   0   0   0   0   0   0
   0   0   0   0   0   0   0   0   0   0   0   0   0   0 103 235 255 255 255 255 255 239  86  86   0   0   0   0   0   0   0   0   0   0   0   0   0   0   0   0   0   0   0   0   0   0   0   0   0   0   0   0   0   0   0 106 252 255 255 255 255 208  15   0   0   0   0   0   0   0   0   0   0   0   0   0   0   0   0   0   0   0   0
   0   0   0   0   0   0   0   0   0   0   0   0   0   0   0   6 223 255 255 255 255 255 250 250  57   0   0   0   0   0   0   0   0   0   0   0   0   0   0   0   0   0   0   0   0   0   0   0   0   0   0   0   0   0   0  73 237 255 255 255 255 255 164   0   0   0   0   0   0   0   0   0   0   0   0   0   0   0   0   0   0   0   0
   0   0   0   0   0   0   0   0   0   0   1  50 111 162 209 242 255 255 255 255 255 255 255 255 232  70   0   0   0   0   0   0   0   0   0   0   0   0   0   0   0   0   0   0   0   0   0   0   0   0   0   2  88 170 226 253 255 255 255 255 255 255 252 106   0   0   0   0   0   0   0   0   0   0   0   0   0   0   0   0   0   0   0
   0   0   0   0   0   3  66 124 174 209 241 255 255 255 255 255 255 255 255 255 255 255 255 255 255 249 121   0   0   0   0   0   0   0   0   0   0   0   0   0   0   0   0   0   0   0   0   0   0   0   0 170 255 255 255 255 255 255 255 255 255 255 239 168   5   0   0   0   0   0   0   0   0   0   0   0   0   0   0   0   0   0   0
   0   0   0   0  64 193 255 255 255 255 255 255 255 255 255 255 255 255 255 255 255 253 220 220 174 124  66   1   0   0   0   0   0   0   0   0   0   0   0   0   0   0   0   0   0   0   0   0  96  92  47   1 150 254 255 255 255 255 255 232 151  88   2   0   0   0   0   0   0   0   0   0   0   0   0   0   0   0   0   0   0   0   0
   0   0   0   0   0   0 139 255 255 255 255 255 255 255 255 255 255 255 254 197 122  34   0   0   0   0   0   0   0   0   0   0   0   0   0   0   0   0   0   0   0   0   0   0   0   0   0   0 188 255 255 228 141 197 255 255 255 255 255 249  94   0   0   0   0   0   0   0   0   0   0   0   0   0   0   0   0   0   0   0   0   0   0
   0   0   0   0   0   0   0  77 199 255 255 255 255 255 255 255 255 238  97   0   0   0   0   0   0   0   0   0   0   0   0   0   0   0   0   0   0   0   0   0   0   0   0   0   0   0   0   0 171 255 255 255 255 255 255 255 255 255 255 255 254 150   1   0   0   0   0   0   0   0   0   0   0   0   0   0   0   0   0   0   0   0   0
   0   0   0   0   0   0   0   0   0  37 143 241 255 255 255 255 255 255 255 199 111  16   0   0   0   0   0   0   0   0   0   0   0   0   0   0   0   0   0   0   0   0  65 128  49   0   0   0 148 255 255 255 255 255 255 255 255 255 255 255 255 255 187  11   0   0   0   0   0   0   0   0   0   0   0   0   0   0   0   0   0   0   0
   0   0   0   0   0   0   0   0   0   0   0  16 143 241 255 255 255 255 255 255 255 241 143 143  16   0   0   0   0   0   0   0   0   0   0   0   0   0   0   0   0   0 171 255 254 204 114  10 123 255 255 255 255 255 255 255 255 255 255 255 255 255 255 215  39   0   0   0   0   0   0   0   0   0   0   0   0   0   0   0   0   0   0
   0   0   0   0   0   0   0   0   0   0   0   0   0  16 145 253 255 255 255 255 255 255 251 251 128   0   0   0   0   0   0   0   0   0   0   0   0   0   0   0   0   2 239 255 255 255 255 244 209 255 255 255 255 255 255 255 255 255 255 255 255 255 255 255 236 119   3   0   0   0   0   0   0   0   0   0   0   0   0   0   0   0   0
   0   0   0   0   0   0   0   0   0   0   0   0   0   0 160 255 255 255 255 255 255 255 125 125   0   0   0   0   0   0   0   0   0   0   0   0 103 115   0   0   0  64 255 255 255 255 255 255 255 255 255 255 255 117 116 187 251 255 255 255 255 255 255 255 255 255 151   0   0   0   0   0   0   0   0   0   0   0   0   0   0   0   0
   0   0   0   0   0   0   0   0   0   0   0   0  10 168 254 255 255 255 255 255 252 148  20  20   1   0   0   0   0   0   3 121  10   0   0  10 223 254 225 150  33 131 255 255 255 255 255 255 255 255 255 255 255 111   0   0  13  78 131 178 211 241 255 255 255 255 252 130   0   0   0   0   0   0   0   0   0   0   0   0   0   0   0
   0   0   0   0   0   0   0   0   0   0   0  69 224 255 255 255 255 255 255 255 255 255 255 255 253 244 134   0   0  23 203 255 242 109   0 169 255 255 255 255 250 239 255 255 255 255 255 255 255 255 255 255 255 136   0   0   0   0   0   0   0   1  47 105 155 190 222 253 169   3   0   0   0   0   0   0   0   0   0   0   0   0   0
   0   0   0   0   0   0   0   0   0   5 144 251 255 255 255 255 255 255 255 255 255 255 255 255 255 255 145   0  50 225 255 255 255 254 186 254 255 255 255 255 255 255 255 255 255 180 124 213 255 255 255 255 255 159   0   0   0   0   0   0   0   0   0   0   0   0   0  13  78  65   0   0   0   0   0   0   0   0   0   0   0   0   0
   0   0   0   0   0   0   0   1 131 242 255 255 255 255 255 255 255 255 255 255 255 255 255 255 255 255 153 133 241 255 255 255 255 255 255 255 255 255 255 255 255 255 255 255 255  88   0   0  60 138 204 254 255 183   0   0   0   0   0   0   0   0   0   0   0   0   0   0   0   0   0   0   0   0   0   0   0   0   0   0   0   0   0
   0   0   0   0   0   0   0  27 126 148 168 195 220 245 255 255 255 255 255 255 255 255 255 255 255 255 246 255 255 255 255 255 255 255 255 255 255 255 255 255 255 255 255 255 253   6   0   0   0   0   0  92 241 199   0   0   0   0   0   0   0   0   0   0   0   0   0   0   0   0   0   0   0   0   0   0   0   0   0   0   0   0   0
   0   0   0   0   0   0   0   0   0   0   0   0   0   0   6  26  41  60  78  94 106 189 255 255 255 255 255 255 255 255 255 255 255 255 255 255 255 212  26 109 213 255 255 255 208   0   0   0   0   0   0   0  20  92   0   0   0   0   0   0   0   0   0   0   0   0   0   0   0   0   0   0   0   0   0   0   0   0   0   0   0   0   0
   0   0   0   0   0   0   0   0   0   0   0   0   0   0   0   0   0   0   0   0   0 145 255 255 255 255 255 255 255 255 229 101 197 254 255 255 245  49   0   0   0  79 189 251 131   0   0   0   0   0   0   0   0   0   0   0   0   0   0   0   0   0   0   0   0   0   0   0   0   0   0   0   0   0   0   0   0   0   0   0   0   0   0
   0   0   0   0   0   0   0   0   0   0   0   0   0   0   0   0   0   0   0   0   0 145 255 255 255 255 255 255 255 208  29   0   0 109 249 255 117   0   0   0   0   0   0  10  11   0   0   0   0   0   0   0   0   0   0   0   0   0   0   0   0   0   0   0   0   0   0   0   0   0   0   0   0   0   0   0   0   0   0   0   0   0   0
   0   0   0   0   0   0   0   0   0   0   0   0   0   0   0   0   0   0   0   0   0 145 255 255 255 255 255 255 182   6   0   0   0   0  71 165   0   0   0   0   0   0   0   0   0   0   0   0   0   0   0   0   0   0   0   0   0   0   0   0   0   0   0   0   0   0   0   0   0   0   0   0   0   0   0   0   0   0   0   0   0   0   0
   0   0   0   0   0   0   0   0   0   0   0   0   0   0   0   0   0   0   0   0   0 145 255 255 255 255 255 167   1   0   0   0   0   0   0   0   0   0   0   0   0   0   0   0   0   0   0   0   0   0   0   0   0   0   0   0   0   0   0   0   0   0   0   0   0   0   0   0   0   0   0   0   0   0   0   0   0   0   0   0   0   0   0
   0   0   0   0   0   0   0   0   0   0   0   0   0   0   0   0   0   0   0   0   0 145 255 255 255 252 128   0   0   0   0   0   0   0   0   0   0   0   0   0   0   0   0   0   0   0   0   0   0   0   0   0   0   0   0   0   0   0   0   0   0   0   0   0   0   0   0   0   0   0   0   0   0   0   0   0   0   0   0   0   0   0   0
   0   0   0   0   0   0   0   0   0   0   0   0   0   0   0   0   0   0   0   0   0 145 255 255 244  91   0   0   0   0   0   0   0   0   0   0   0   0   0   0   0   0   0   0   0   0   0   0   0   0   0   0   0   0   0   0   0   0   0   0   0   0   0   0   0   0   0   0   0   0   0   0   0   0   0   0   0   0   0   0   0   0   0
   0   0   0   0   0   0   0   0   0   0   0   0   0   0   0   0   0   0   0   0   0 145 229 229  58   0   0   0   0   0   0   0   0   0   0   0   0   0   0   0   0   0   0   0   0   0   0   0   0   0   0   0   0   0   0   0   0   0   0   0   0   0   0   0   0   0   0   0   0   0   0   0   0   0   0   0   0   0   0   0   0   0   0
   0   0   0   0   0   0   0   0   0   0   0   0   0   0   0   0   0   0   0   0   0 143  59  59   0   0   0   0   0   0   0   0   0   0   0   0   0   0   0   0   0   0   0   0   0   0   0   0   0   0   0   0   0   0   0   0   0   0   0   0   0   0   0   0   0   0   0   0   0   0   0   0   0   0   0   0   0   0   0   0   0   0   0
   0   0   0   0   0   0   0   0   0   0   0   0   0   0   0   0   0   0   0   0   0  16   0   0   0   0   0   0   0   0   0   0   0   0   0   0   0   0   0   0   0   0   0   0   0   0   0   0   0   0   0   0   0   0   0   0   0   0   0   0   0   0   0   0   0   0   0   0   0   0   0   0   0   0   0   0   0   0   0   0   0   0   0
   0   0   0   0   0   0   0   0   0   0   0   0   0   0   0   0   0   0   0   0   0   0   0   0   0   0   0   0   0   0   0   0   0   0   0   0   0   0   0   0   0   0   0   0   0   0   0   0   0   0   0   0   0   0   0   0   0   0   0   0   0   0   0   0   0   0   0   0   0   0   0   0   0   0   0   0   0   0   0   0   0   0   0
